<svg width="1030" height="588" viewBox="0 0 1030 588" fill="none" xmlns="http://www.w3.org/2000/svg">
<path d="M490.339 -173.178C280.296 -173.178 83.9687 -42.175 0 127.237L79.3971 204.283C114.043 -1.47971 250.462 -159.003 490.339 -159.003C719.628 -159.003 853.161 -15.1972 893.581 175.705C895.566 183.6 896.933 191.624 897.671 199.711H898.874C906.743 246.359 910.686 293.529 910.663 340.773C910.663 617.181 781.943 839.405 491.06 839.405C250.462 839.405 114.765 684.169 80.1188 478.863L0.721765 554.538C45.5861 642.303 114.996 716.647 201.354 769.432C287.712 822.217 387.688 851.408 490.339 853.809C632.712 851.516 768.579 796.752 869.267 701.074C969.955 605.397 1027.59 476.291 1030 341.002C1030 64.5933 781.221 -173.178 490.339 -173.178Z" fill="#667164"/>
<path d="M407.561 -93.1601H317.578V521.843C344.38 498.111 374.696 478.238 407.561 462.857V203.139C416.082 203.167 424.595 203.625 433.065 204.511C436.44 199.815 441.013 196.008 446.357 193.449C451.701 190.89 457.641 189.662 463.621 189.878C554.086 179.362 646.716 131.122 646.716 49.2739C647.438 -43.3195 531.951 -93.1601 407.561 -93.1601ZM407.561 178.904V-78.7566C509.334 -78.7566 557.454 -40.3473 557.454 49.2739C557.454 138.895 509.334 178.904 407.561 178.904Z" fill="#667164"/>
<path d="M903.192 182.802L895.252 185.088C897.957 203.92 896.979 223.065 892.365 241.558C878.17 292.085 824.035 325.235 759.555 350.841C754.983 342.84 750.171 334.838 744.878 327.979C717.468 291.377 681.968 260.911 640.864 238.716C599.761 216.521 554.048 203.134 506.927 199.491C463.137 194.242 418.73 196.019 375.56 204.749V211.38C454.346 227.255 529.381 256.783 596.911 298.486C629.411 319.152 656.424 346.699 675.827 378.962C624.339 394.737 574.535 409.369 537.964 423.315C413.093 471.098 242.029 551.803 292.073 691.493C317.336 761.91 479.739 836.671 677.03 698.124C725.827 666.747 762.565 621.144 781.704 568.193C800.842 515.242 801.344 457.814 783.133 404.569C882.5 353.356 950.59 283.625 903.192 182.802ZM633 653.313C566.114 707.497 435.229 765.34 362.568 724.416C349.57 718.229 338.638 708.732 330.99 696.984C323.343 685.236 319.282 671.699 319.26 657.885C319.26 656.514 319.26 655.142 319.26 653.541C320.128 640.616 324.613 628.145 332.253 617.419C361.437 579.482 400.829 549.71 446.296 531.227C504.28 506.764 607.256 480.014 702.292 442.52C713.02 480.28 712.2 520.165 699.928 557.498C687.655 594.832 664.439 628.068 633 653.313Z" fill="#667164"/>
</svg>
