<svg width="30" height="32" viewBox="0 0 30 32" fill="none" xmlns="http://www.w3.org/2000/svg">
<path d="M14.2782 0C8.17028 0 2.45505 4.08424 0 9.36713L2.31226 11.7644C3.3157 5.32728 7.28583 0.443942 14.2663 0.443942C20.9413 0.443942 24.8242 4.92774 26.0021 10.8765C26.0581 11.1224 26.0979 11.3718 26.1211 11.6231H26.1489C26.3805 13.0763 26.4972 14.546 26.4979 16.0182C26.4979 24.6306 22.7459 31.5561 14.2821 31.5561C7.30169 31.5561 3.33157 26.7131 2.32813 20.3244L0.0158559 22.6773C2.45901 27.9601 8.17424 32 14.294 32C22.7578 32 30 24.6306 30 16.0182C30 7.40573 22.7419 0 14.2782 0Z" fill="white"/>
<path d="M11.8716 2.49011H9.25391V21.6522C10.0363 20.9167 10.9177 20.2983 11.8716 19.8159V11.7241C12.1016 11.7241 12.3554 11.7241 12.6172 11.7644C12.7159 11.6191 12.8491 11.5014 13.0044 11.4224C13.1597 11.3434 13.3321 11.3055 13.5056 11.3124H13.5255C16.159 10.9815 18.852 9.48015 18.852 6.92951C18.852 4.03583 15.4927 2.49011 11.8716 2.49011ZM11.8716 10.9653V2.93404C14.8383 2.93404 16.2343 4.1448 16.2343 6.92951C16.2343 9.71423 14.8383 10.9694 11.8716 10.9694V10.9653Z" fill="white"/>
<path d="M26.2948 11.0864L26.0687 11.159C26.1433 11.7477 26.1124 12.3452 25.9775 12.9227C25.5809 14.4926 23.9944 15.5298 22.1184 16.3249C21.9835 16.0746 21.8408 15.8285 21.6861 15.5903C20.1194 13.1688 17.4661 11.9097 14.7612 11.5868C13.4881 11.4238 12.1972 11.4784 10.9418 11.7482V11.9904C13.2382 12.5958 15.4671 13.3303 17.3868 14.7105C18.332 15.3545 19.118 16.2123 19.6832 17.2168C18.184 17.7051 16.7363 18.1611 15.6734 18.597C12.0404 20.0903 7.05493 22.6005 8.51448 26.9592C9.24822 29.1547 13.9719 31.4834 19.7268 27.1651C23.0068 24.7032 23.7643 21.1517 22.8125 18.0159C25.7117 16.4015 27.675 14.2343 26.2948 11.0864ZM18.4338 25.7485C16.4864 27.4395 12.6789 29.2435 10.561 27.9682C10.1836 27.7754 9.86623 27.4797 9.64424 27.1142C9.42225 26.7486 9.30438 26.3275 9.30374 25.8978C9.30374 25.8494 9.30374 25.805 9.30374 25.7606V25.7243C9.33666 25.3188 9.47341 24.9292 9.70035 24.5942C10.4619 23.3109 12.1514 22.3019 13.02 21.9104C14.7096 21.1477 17.7001 20.2961 20.4645 19.1499C20.783 20.3322 20.7609 21.5826 20.4008 22.7525C20.0408 23.9223 19.3581 24.9622 18.4338 25.7485Z" fill="white"/>
</svg>
