<svg width="30" height="30" viewBox="0 0 30 30" fill="none" xmlns="http://www.w3.org/2000/svg">
<path d="M25.1543 3.98431C24.8292 3.99865 24.5264 4.09334 24.2598 4.20111C24.01 4.30157 23.0558 4.71085 21.5527 5.35541C20.0484 6.00053 18.0565 6.85572 15.9316 7.76947C11.682 9.59697 6.90421 11.6541 4.45703 12.707C4.36501 12.7465 4.04392 12.8491 3.70312 13.1152C3.36233 13.3812 3 13.9325 3 14.5468C3 15.0422 3.23607 15.5343 3.5332 15.8281C3.83034 16.1219 4.14475 16.267 4.41406 16.3769C5.39123 16.7756 8.42185 18.0158 8.99414 18.2499C9.19555 18.8669 10.2925 22.2225 10.5469 23.0449C10.7146 23.5876 10.8742 23.9275 11.082 24.1972C11.1859 24.3321 11.3067 24.4503 11.4531 24.5429C11.5116 24.5799 11.5758 24.6084 11.6406 24.6347L11.6445 24.6367C11.6595 24.6427 11.6723 24.6528 11.6875 24.6581C11.7161 24.6681 11.7352 24.6693 11.7734 24.6777C11.9258 24.7269 12.0795 24.7578 12.2168 24.7578C12.802 24.7578 13.1602 24.4355 13.1602 24.4355L13.1816 24.4199L16.1914 21.8163L19.8418 25.2695C19.8932 25.3421 20.3725 25.9999 21.4297 25.9999C22.0574 25.9999 22.5553 25.685 22.875 25.3495C23.1947 25.0141 23.3938 24.6617 23.4785 24.2187V24.2167C23.5577 23.7981 26.9219 6.52728 26.9219 6.52728L26.916 6.55072C27.0145 6.10121 27.0403 5.68258 26.9316 5.26947C26.823 4.85636 26.5366 4.46083 26.1816 4.24799C25.8267 4.03519 25.4794 3.96997 25.1543 3.98431ZM24.9668 6.07416C24.962 6.10334 24.9704 6.08867 24.9629 6.12299L24.9609 6.1347L24.959 6.14642C24.959 6.14642 21.6365 23.1963 21.5137 23.8456C21.5227 23.7966 21.4816 23.8941 21.4395 23.9531C21.3799 23.912 21.2578 23.8593 21.2578 23.8593L21.2383 23.8378L16.252 19.121L12.7266 22.1679L13.7754 17.9687C13.7754 17.9687 20.3316 11.182 20.7266 10.787C21.0446 10.471 21.1113 10.3609 21.1113 10.2519C21.1113 10.1059 21.0352 9.99994 20.8652 9.99994C20.7122 9.99994 20.5065 10.1487 20.3965 10.2187C18.9634 11.1322 12.6718 14.7991 9.85156 16.4394C9.40338 16.256 6.28966 14.9814 5.23438 14.5507C5.24236 14.5472 5.23973 14.5485 5.24805 14.5449C7.69587 13.4917 12.4716 11.4346 16.7207 9.60736C18.8452 8.69374 20.8387 7.8379 22.3418 7.1933C23.8218 6.55862 24.8501 6.12183 24.9668 6.07416Z" fill="white"/>
</svg>
