<svg width="30" height="30" viewBox="0 0 30 30" fill="none" xmlns="http://www.w3.org/2000/svg">
<path fill-rule="evenodd" clip-rule="evenodd" d="M12.9017 3.19451C8.78535 4.00656 5.19722 6.93798 3.78861 10.6397C2.766 13.3274 2.73539 16.7196 3.71155 19.2486C4.42738 21.1034 4.42738 21.1045 3.69715 23.8401C3.29531 25.3447 3.0627 26.6722 3.18009 26.7896C3.29747 26.9065 4.69132 26.7222 6.27744 26.3799C8.99924 25.7918 9.24805 25.7914 10.6966 26.3709C11.6152 26.7381 13.251 26.9908 14.7687 26.9998C24.0888 27.0548 29.9195 17.3646 25.4881 9.18479C23.1311 4.83408 17.6986 2.24856 12.9017 3.19451ZM19.1058 6.55248C22.5276 8.16973 24.311 11.0824 24.311 15.0534C24.311 18.9103 22.5503 21.8187 19.2066 23.4841C16.8114 24.6774 13.4109 24.753 11.0131 23.6656C9.51342 22.9856 8.93515 22.9673 7.00083 23.5385C6.49132 23.689 6.4654 23.5345 6.79379 22.3046C7.11065 21.1175 7.04728 20.6157 6.38618 19.0791C4.89764 15.6207 5.49104 11.5403 7.89633 8.69238C10.3582 5.77715 15.4201 4.81068 19.1058 6.55248ZM9.68374 10.2214C8.88653 11.0184 8.78175 11.3751 8.93803 12.7616C9.16883 14.809 11.5734 18.0151 14.0057 19.5182C16.3087 20.9418 19.1151 21.2067 20.276 20.11C20.7319 19.6795 21.0848 18.9178 21.0826 18.3689C21.0794 17.5637 20.8125 17.2811 19.5555 16.7527L18.0317 16.1124L17.3728 17.0169L16.7138 17.9215L15.3445 17.2232C14.5915 16.8391 13.5524 16.0224 13.0353 15.408C12.1351 14.3385 12.1204 14.2532 12.6889 13.3861C13.2481 12.5323 13.238 12.3894 12.5078 10.8873C11.6202 9.06061 10.993 8.91266 9.68374 10.2214Z" fill="white"/>
</svg>
